<svg xmlns="http://www.w3.org/2000/svg" width="180" height="53.333"><defs><clipPath clipPathUnits="userSpaceOnUse" id="b"><path d="M205.098 176.105l-.743.711c-2.91 3.079-4.628 7.86-4.628 14.051v-1.457 221.156-1.461c0 6.704 2.003 11.754 5.359 14.782l123.898-123.895-123.886-123.887M199.77 412.27c0 .007 0 .015.003.023-.003-.008-.003-.016-.003-.023m.003.07"/></clipPath><clipPath clipPathUnits="userSpaceOnUse" id="d"><path d="M370.277 257.215l.942.535 48.929 27.801c4.665 2.652 7.774 5.867 9.325 9.269-1.547-3.402-4.657-6.621-9.325-9.273l-48.929-27.801-.942-.531m.012 1.465l-41.305 41.312 41.301 41.305 49.863-28.328c6.332-3.598 9.887-8.235 10.481-12.973v-.019c-.594-4.727-4.149-9.368-10.481-12.965l-49.859-28.332"/></clipPath><clipPath clipPathUnits="userSpaceOnUse" id="f"><path d="M213.93 171.387c-3.461 0-6.481 1.125-8.836 3.25l.004.004c2.355-2.125 5.379-3.254 8.84-3.254a18.869 18.869 0 01-.008 0m.004 1.465c-3.461-.004-6.481 1.125-8.836 3.25v.003l123.886 123.887 41.305-41.312-145.152-82.473c-4.016-2.277-7.821-3.355-11.203-3.355m-8.871 1.812c-.219.199-.434.41-.645.629l.645-.629"/></clipPath><clipPath clipPathUnits="userSpaceOnUse" id="h"><path d="M328.984 299.992L205.086 423.887c2.355 2.121 5.371 3.246 8.828 3.246 3.391 0 7.199-1.082 11.223-3.363l145.148-82.473-41.301-41.305m42.235 42.238l-146.082 83c-4.024 2.282-7.832 3.364-11.223 3.364h-.043.059c3.383 0 7.187-1.078 11.207-3.36l146.082-83.004M213.84 428.594"/></clipPath><clipPath clipPathUnits="userSpaceOnUse" id="j"><path d="M370.277 257.215l.942.535-.942-.535"/></clipPath><clipPath clipPathUnits="userSpaceOnUse" id="l"><path d="M213.938 171.387c-3.461 0-6.485 1.129-8.84 3.254l-.004-.004a.286.286 0 01-.031.027l-.645.629c-.02.02-.039.043-.063.066l.743.743c2.355-2.125 5.375-3.254 8.836-3.25 3.382 0 7.187 1.078 11.203 3.355l145.152 82.473.93-.93-.942-.535-145.14-82.469c-3.66-2.074-7.141-3.156-10.285-3.336a18.869 18.869 0 00-.914-.023"/></clipPath><clipPath clipPathUnits="userSpaceOnUse" id="n"><path d="M204.355 175.359c-2.91 3.079-4.628 7.856-4.628 14.051v1.457c0-6.191 1.718-10.972 4.628-14.051l.743-.711-.743-.746"/></clipPath><clipPath clipPathUnits="userSpaceOnUse" id="p"><path d="M204.355 175.359l.743.746v-.003l-.743-.743"/></clipPath><clipPath clipPathUnits="userSpaceOnUse" id="r"><path d="M371.219 257.75l-.93.93 49.859 28.332c6.332 3.597 9.887 8.238 10.481 12.965 0-1.735-.387-3.469-1.156-5.157-1.551-3.402-4.66-6.617-9.325-9.269l-48.929-27.801"/></clipPath><clipPath clipPathUnits="userSpaceOnUse" id="t"><path d="M430.629 299.996c-.594 4.738-4.149 9.375-10.481 12.973l-49.863 28.328.93.93h.004l48.929-27.801c6.981-3.969 10.477-9.199 10.481-14.43"/></clipPath><clipPath clipPathUnits="userSpaceOnUse" id="v"><path d="M199.727 409.105v1.528c0 .551.015 1.09.043 1.613v.024c0 .007 0 .015.003.023v.059c.301 5.332 1.957 9.492 4.582 12.269l.731-.734c-3.356-3.028-5.359-8.078-5.359-14.782m5.339 16.215l.028.028c-.008-.012-.02-.02-.028-.028"/></clipPath><clipPath clipPathUnits="userSpaceOnUse" id="x"><path d="M370.285 341.297L225.137 423.77c-4.024 2.281-7.832 3.363-11.223 3.363-3.457 0-6.473-1.125-8.828-3.246l-.731.734c.231.242.465.477.711.699l.028.024c2.336 2.105 5.32 3.23 8.746 3.25h.074c3.391 0 7.199-1.082 11.223-3.364l146.082-83-.004-.003-.93-.93"/></clipPath><clipPath id="a" clipPathUnits="userSpaceOnUse"><path d="M1400 500H150c-27.5 0-50-22.5-50-50V150c0-27.5 22.5-50 50-50h1250c27.5 0 50 22.5 50 50v300c0 27.5-22.5 50-50 50m0-8c23.16 0 42-18.844 42-42V150c0-23.16-18.84-42.004-42-42.004H150c-23.156 0-42 18.844-42 42.004v300c0 23.156 18.844 42 42 42h1250" fill="#a6a6a6"/></clipPath><linearGradient x1="0" y1="0" x2="1" y2="0" gradientUnits="userSpaceOnUse" gradientTransform="rotate(-135 244.496 140.583) scale(237.34)" spreadMethod="pad" id="c"><stop offset="0" stop-color="#00a0ff"/><stop offset=".007" stop-color="#00a1ff"/><stop offset=".26" stop-color="#00beff"/><stop offset=".512" stop-color="#00d2ff"/><stop offset=".76" stop-color="#00dfff"/><stop offset="1" stop-color="#00e3ff"/></linearGradient><linearGradient x1="0" y1="0" x2="1" y2="0" gradientUnits="userSpaceOnUse" gradientTransform="rotate(180 219.172 149.993) scale(241.97)" spreadMethod="pad" id="e"><stop offset="0" stop-color="#ffe000"/><stop offset=".409" stop-color="#ffbd00"/><stop offset=".775" stop-color="orange"/><stop offset="1" stop-color="#ff9c00"/></linearGradient><linearGradient x1="0" y1="0" x2="1" y2="0" gradientUnits="userSpaceOnUse" gradientTransform="rotate(-135 231.512 66.39) scale(321.851)" spreadMethod="pad" id="g"><stop offset="0" stop-color="#ff3a44"/><stop offset="1" stop-color="#c31162"/></linearGradient><linearGradient x1="0" y1="0" x2="1" y2="0" gradientUnits="userSpaceOnUse" gradientTransform="rotate(-45 687.844 40.242) scale(143.72)" spreadMethod="pad" id="i"><stop offset="0" stop-color="#32a071"/><stop offset=".069" stop-color="#2da771"/><stop offset=".476" stop-color="#15cf74"/><stop offset=".801" stop-color="#06e775"/><stop offset="1" stop-color="#00f076"/></linearGradient><linearGradient x1="0" y1="0" x2="1" y2="0" gradientUnits="userSpaceOnUse" gradientTransform="rotate(180 219.172 149.993) scale(241.97)" spreadMethod="pad" id="k"><stop offset="0" stop-color="#ccb300"/><stop offset=".409" stop-color="#cc9700"/><stop offset=".775" stop-color="#cc8400"/><stop offset="1" stop-color="#cc7d00"/></linearGradient><linearGradient x1="0" y1="0" x2="1" y2="0" gradientUnits="userSpaceOnUse" gradientTransform="rotate(-135 231.512 66.39) scale(321.851)" spreadMethod="pad" id="m"><stop offset="0" stop-color="#cc2e36"/><stop offset="1" stop-color="#9c0e4e"/></linearGradient><linearGradient x1="0" y1="0" x2="1" y2="0" gradientUnits="userSpaceOnUse" gradientTransform="rotate(-135 244.496 140.583) scale(237.34)" spreadMethod="pad" id="o"><stop offset="0" stop-color="#008de0"/><stop offset=".007" stop-color="#008de0"/><stop offset=".26" stop-color="#00a7e0"/><stop offset=".512" stop-color="#00b8e0"/><stop offset=".76" stop-color="#00c4e0"/><stop offset="1" stop-color="#00c7e0"/></linearGradient><linearGradient x1="0" y1="0" x2="1" y2="0" gradientUnits="userSpaceOnUse" gradientTransform="rotate(-135 231.512 66.39) scale(321.851)" spreadMethod="pad" id="q"><stop offset="0" stop-color="#e0333c"/><stop offset="1" stop-color="#ab0f56"/></linearGradient><linearGradient x1="0" y1="0" x2="1" y2="0" gradientUnits="userSpaceOnUse" gradientTransform="rotate(180 219.172 149.993) scale(241.97)" spreadMethod="pad" id="s"><stop offset="0" stop-color="#e0c500"/><stop offset=".409" stop-color="#e0a600"/><stop offset=".775" stop-color="#e09100"/><stop offset="1" stop-color="#e08900"/></linearGradient><linearGradient x1="0" y1="0" x2="1" y2="0" gradientUnits="userSpaceOnUse" gradientTransform="rotate(180 219.172 149.993) scale(241.97)" spreadMethod="pad" id="u"><stop offset="0" stop-color="#ffe840"/><stop offset=".409" stop-color="#ffce40"/><stop offset=".775" stop-color="#ffbc40"/><stop offset="1" stop-color="#ffb540"/></linearGradient><linearGradient x1="0" y1="0" x2="1" y2="0" gradientUnits="userSpaceOnUse" gradientTransform="rotate(-135 244.496 140.583) scale(237.34)" spreadMethod="pad" id="w"><stop offset="0" stop-color="#40b8ff"/><stop offset=".007" stop-color="#40b9ff"/><stop offset=".26" stop-color="#40ceff"/><stop offset=".512" stop-color="#40ddff"/><stop offset=".76" stop-color="#40e7ff"/><stop offset="1" stop-color="#40eaff"/></linearGradient><linearGradient x1="0" y1="0" x2="1" y2="0" gradientUnits="userSpaceOnUse" gradientTransform="rotate(-45 687.844 40.242) scale(143.72)" spreadMethod="pad" id="y"><stop offset="0" stop-color="#65b895"/><stop offset=".069" stop-color="#62bd95"/><stop offset=".476" stop-color="#50db97"/><stop offset=".801" stop-color="#44ed98"/><stop offset="1" stop-color="#40f498"/></linearGradient></defs><path clip-path="url(#a)" d="M1550 0H0v600h1550V0M100 150c0-27.5 22.5-50 50-50h1250c27.5 0 50 22.5 50 50v300c0 27.5-22.5 50-50 50H150c-27.5 0-50-22.5-50-50V150" fill="#fff" transform="matrix(.13333 0 0 -.13333 -13.333 66.667)"/><path d="M173.333 53.333H6.667C3 53.333 0 50.333 0 46.667v-40C0 3 3 0 6.667 0h166.666C177 0 180 3 180 6.667v40c0 3.666-3 6.666-6.667 6.666"/><path d="M142.581 40h2.488V23.332h-2.488zm22.41-10.664l-2.852 7.227h-.086l-2.96-7.227h-2.68l4.439 10.1-2.53 5.619h2.595l6.84-15.719zm-14.11 8.77c-.816 0-1.952-.407-1.952-1.415 0-1.286 1.416-1.78 2.638-1.78 1.094 0 1.608.236 2.273.558-.193 1.544-1.523 2.638-2.959 2.638zm.3-9.135c-1.801 0-3.666.794-4.438 2.552l2.208.922c.472-.922 1.35-1.222 2.273-1.222 1.287 0 2.595.772 2.616 2.145v.171c-.45-.257-1.415-.643-2.595-.643-2.38 0-4.804 1.308-4.804 3.752 0 2.23 1.952 3.668 4.139 3.668 1.673 0 2.595-.75 3.175-1.63h.085v1.286h2.401v-6.39c0-2.96-2.208-4.61-5.06-4.61zm-15.376 2.394h-3.538v-5.713h3.538c1.86 0 2.916 1.54 2.916 2.856 0 1.292-1.056 2.857-2.916 2.857zm-.064-8.033h-5.961V40h2.487v-6.315h3.474c2.758 0 5.468-1.996 5.468-5.177 0-3.18-2.71-5.176-5.468-5.176zM103.233 38.11c-1.718 0-3.158-1.44-3.158-3.416 0-1.997 1.44-3.458 3.158-3.458 1.697 0 3.029 1.46 3.029 3.458 0 1.977-1.332 3.416-3.029 3.416zm2.857-7.84h-.086c-.558-.666-1.633-1.268-2.986-1.268-2.835 0-5.434 2.492-5.434 5.692 0 3.18 2.599 5.65 5.434 5.65 1.353 0 2.428-.602 2.986-1.289h.086v.816c0 2.17-1.16 3.33-3.029 3.33-1.525 0-2.47-1.096-2.857-2.02l-2.17.903c.624 1.503 2.278 3.35 5.027 3.35 2.922 0 5.392-1.718 5.392-5.906V29.346h-2.363zm4.081 9.73h2.492V23.331h-2.492zm6.165-5.499c-.064-2.191 1.697-3.308 2.965-3.308.988 0 1.826.494 2.104 1.203zm7.733-1.89c-.472-1.268-1.912-3.609-4.854-3.609-2.922 0-5.349 2.299-5.349 5.67 0 3.18 2.406 5.672 5.628 5.672 2.6 0 4.103-1.59 4.726-2.513l-1.933-1.29c-.644.946-1.526 1.569-2.793 1.569-1.267 0-2.17-.58-2.75-1.718l7.583-3.137zm-60.41-1.869v2.406h5.756c-.172 1.353-.623 2.341-1.31 3.029-.838.838-2.148 1.761-4.447 1.761-3.544 0-6.315-2.857-6.315-6.401 0-3.544 2.771-6.402 6.315-6.402 1.912 0 3.308.752 4.34 1.72l1.696-1.698c-1.439-1.375-3.35-2.427-6.036-2.427-4.854 0-8.936 3.952-8.936 8.807s4.082 8.807 8.936 8.807c2.621 0 4.597-.86 6.144-2.47 1.59-1.59 2.083-3.824 2.083-5.628 0-.56-.042-1.074-.129-1.504zM78.43 38.11c-1.719 0-3.2-1.418-3.2-3.437 0-2.04 1.481-3.437 3.2-3.437 1.718 0 3.2 1.396 3.2 3.437 0 2.02-1.482 3.437-3.2 3.437zm0-9.108c-3.136 0-5.693 2.384-5.693 5.67 0 3.266 2.557 5.672 5.693 5.672 3.136 0 5.692-2.406 5.692-5.671 0-3.287-2.556-5.67-5.692-5.67zm12.418 9.108c-1.718 0-3.2-1.418-3.2-3.437 0-2.04 1.482-3.437 3.2-3.437 1.718 0 3.2 1.396 3.2 3.437 0 2.02-1.482 3.437-3.2 3.437zm0-9.108c-3.137 0-5.692 2.384-5.692 5.67 0 3.266 2.555 5.672 5.692 5.672 3.136 0 5.692-2.406 5.692-5.671 0-3.287-2.556-5.67-5.692-5.67" fill="#fff"/><g clip-path="url(#b)" transform="matrix(.13333 0 0 -.13333 -13.333 66.667)"><path d="M205.098 176.105l-.743.711c-2.91 3.079-4.628 7.86-4.628 14.051v-1.457 221.156-1.461c0 6.704 2.003 11.754 5.359 14.782l123.898-123.895-123.886-123.887M199.77 412.27c0 .007 0 .015.003.023-.003-.008-.003-.016-.003-.023m.003.07" fill="url(#c)"/></g><g clip-path="url(#d)" transform="matrix(.13333 0 0 -.13333 -13.333 66.667)"><path d="M370.277 257.215l.942.535 48.929 27.801c4.665 2.652 7.774 5.867 9.325 9.269-1.547-3.402-4.657-6.621-9.325-9.273l-48.929-27.801-.942-.531m.012 1.465l-41.305 41.312 41.301 41.305 49.863-28.328c6.332-3.598 9.887-8.235 10.481-12.973v-.019c-.594-4.727-4.149-9.368-10.481-12.965l-49.859-28.332" fill="url(#e)"/></g><g clip-path="url(#f)" transform="matrix(.13333 0 0 -.13333 -13.333 66.667)"><path d="M213.93 171.387c-3.461 0-6.481 1.125-8.836 3.25l.004.004c2.355-2.125 5.379-3.254 8.84-3.254a18.869 18.869 0 01-.008 0m.004 1.465c-3.461-.004-6.481 1.125-8.836 3.25v.003l123.886 123.887 41.305-41.312-145.152-82.473c-4.016-2.277-7.821-3.355-11.203-3.355m-8.871 1.812c-.219.199-.434.41-.645.629l.645-.629" fill="url(#g)"/></g><g clip-path="url(#h)" transform="matrix(.13333 0 0 -.13333 -13.333 66.667)"><path d="M328.984 299.992L205.086 423.887c2.355 2.121 5.371 3.246 8.828 3.246 3.391 0 7.199-1.082 11.223-3.363l145.148-82.473-41.301-41.305m42.235 42.238l-146.082 83c-4.024 2.282-7.832 3.364-11.223 3.364h-.043.059c3.383 0 7.187-1.078 11.207-3.36l146.082-83.004M213.84 428.594" fill="url(#i)"/></g><path d="M15.314 43.812c.419-.024.883-.168 1.37-.445l19.353-10.996-19.352 10.996c-.488.277-.952.421-1.371.445m-1.301-.43l-.005-.004a.038.038 0 01.005.004m-.09-.088l-.009-.008.008.008"/><g clip-path="url(#j)" transform="matrix(.13333 0 0 -.13333 -13.333 66.667)"><path d="M370.277 257.215l.942.535-.942-.535" fill="url(#k)"/></g><g clip-path="url(#l)" transform="matrix(.13333 0 0 -.13333 -13.333 66.667)"><path d="M213.938 171.387c-3.461 0-6.485 1.129-8.84 3.254l-.004-.004a.286.286 0 01-.031.027l-.645.629c-.02.02-.039.043-.063.066l.743.743c2.355-2.125 5.375-3.254 8.836-3.25 3.382 0 7.187 1.078 11.203 3.355l145.152 82.473.93-.93-.942-.535-145.14-82.469c-3.66-2.074-7.141-3.156-10.285-3.336a18.869 18.869 0 00-.914-.023" fill="url(#m)"/></g><path d="M13.914 43.286c-.388-.41-.617-1.048-.617-1.873v-.001c0 .826.229 1.463.617 1.873v.001"/><g clip-path="url(#n)" transform="matrix(.13333 0 0 -.13333 -13.333 66.667)"><path d="M204.355 175.359c-2.91 3.079-4.628 7.856-4.628 14.051v1.457c0-6.191 1.718-10.972 4.628-14.051l.743-.711-.743-.746" fill="url(#o)"/></g><g clip-path="url(#p)" transform="matrix(.13333 0 0 -.13333 -13.333 66.667)"><path d="M204.355 175.359l.743.746v-.003l-.743-.743" fill="url(#q)"/></g><path d="M43.93 27.357a1.65 1.65 0 00.154-.687v-.001c0 .232-.052.463-.154.688"/><g clip-path="url(#r)" transform="matrix(.13333 0 0 -.13333 -13.333 66.667)"><path d="M371.219 257.75l-.93.93 49.859 28.332c6.332 3.597 9.887 8.238 10.481 12.965 0-1.735-.387-3.469-1.156-5.157-1.551-3.402-4.66-6.617-9.325-9.269l-48.929-27.801" fill="url(#s)"/></g><path d="M44.084 26.668c0-.698-.467-1.396-1.398-1.925l-6.523-3.707h-.001l6.524 3.707c.932.529 1.399 1.227 1.398 1.925" fill="#404040"/><g clip-path="url(#t)" transform="matrix(.13333 0 0 -.13333 -13.333 66.667)"><path d="M430.629 299.996c-.594 4.738-4.149 9.375-10.481 12.973l-49.863 28.328.93.93h.004l48.929-27.801c6.981-3.969 10.477-9.199 10.481-14.43" fill="url(#u)"/></g><path d="M13.297 11.917v-.001.001m.006-.216v-.004.004m0-.007v-.006.006m0-.008c.077-1.37.822-2.16 1.876-2.165a1.715 1.715 0 00-1.166.433l-.004.003c-.033.03-.064.061-.095.094-.35.37-.57.924-.61 1.635" fill="#404040"/><g clip-path="url(#v)" transform="matrix(.13333 0 0 -.13333 -13.333 66.667)"><path d="M199.727 409.105v1.528c0 .551.015 1.09.043 1.613v.024c0 .007 0 .015.003.023v.059c.301 5.332 1.957 9.492 4.582 12.269l.731-.734c-3.356-3.028-5.359-8.078-5.359-14.782m5.339 16.215l.028.028c-.008-.012-.02-.02-.028-.028" fill="url(#w)"/></g><path d="M15.179 9.52h.004-.004" fill="#404040"/><g clip-path="url(#x)" transform="matrix(.13333 0 0 -.13333 -13.333 66.667)"><path d="M370.285 341.297L225.137 423.77c-4.024 2.281-7.832 3.363-11.223 3.363-3.457 0-6.473-1.125-8.828-3.246l-.731.734c.231.242.465.477.711.699l.028.024c2.336 2.105 5.32 3.23 8.746 3.25h.074c3.391 0 7.199-1.082 11.223-3.364l146.082-83-.004-.003-.93-.93" fill="url(#y)"/></g><path d="M56.065 16.35h1.42c.923 0 1.655-.264 2.195-.793.54-.529.81-1.27.81-2.224 0-.946-.27-1.685-.81-2.218-.54-.532-1.272-.799-2.196-.799h-1.419zm-1.028.983v-8h2.447c1.23 0 2.213.37 2.95 1.112.738.741 1.107 1.703 1.107 2.888 0 1.185-.37 2.148-1.106 2.888-.738.742-1.721 1.112-2.95 1.112h-2.448" fill="#fff"/><path d="M56.065 16.35v.134h1.42c.947 0 1.72-.275 2.288-.832.57-.558.851-1.342.85-2.319.001-.97-.28-1.751-.85-2.313-.567-.56-1.34-.838-2.289-.837h-1.552v6.3h.133v-.132h.133v-5.902h1.286c.899.002 1.59.258 2.102.761.51.505.77 1.201.77 2.123 0 .93-.26 1.628-.77 2.128-.513.502-1.203.755-2.102.756h-1.419v.134h.133zm-1.028.983h.134V9.467h2.313c1.203 0 2.145.358 2.857 1.073.71.715 1.065 1.635 1.066 2.793-.001 1.158-.356 2.078-1.066 2.794-.712.714-1.654 1.072-2.857 1.073h-2.447v.133h.134-.134v.134h2.447c1.256 0 2.28-.382 3.045-1.151.764-.767 1.146-1.772 1.145-2.983.001-1.212-.381-2.216-1.144-2.981-.765-.77-1.79-1.153-3.046-1.152h-2.58v8.267h.133v-.134m7.946 0v-8h1.027v8h-1.027" fill="#fff"/><path d="M62.983 17.333h.133V9.467h.761V17.2h-.894v.133h.133-.133v.134h1.161V9.2h-1.295v8.267h.134v-.134m5.116.179c-.58 0-1.148-.19-1.703-.57-.556-.38-.92-.912-1.09-1.598l.939-.38c.112.44.34.81.686 1.112.348.302.736.453 1.168.453.447 0 .83-.118 1.146-.352.316-.234.474-.553.474-.956 0-.446-.158-.79-.474-1.033-.316-.242-.818-.467-1.503-.676-.708-.223-1.245-.512-1.61-.866-.364-.354-.547-.806-.547-1.357 0-.574.228-1.073.682-1.497.454-.425 1.047-.638 1.776-.638.678 0 1.23.17 1.654.51.424.338.7.708.826 1.11l-.937.391c-.068-.252-.233-.487-.497-.704-.264-.215-.606-.323-1.024-.323-.395 0-.732.11-1.01.33-.28.22-.42.493-.42.82 0 .298.129.55.386.755.258.204.635.39 1.134.553.394.127.724.25.99.369.264.118.532.277.803.475.272.196.477.443.615.737s.206.635.206 1.022-.079.734-.239 1.039a1.95 1.95 0 01-.638.727 3.199 3.199 0 01-1.793.547" fill="#fff"/><path d="M68.099 17.512v-.133c-.551 0-1.09-.179-1.628-.546-.53-.364-.871-.863-1.036-1.52l-.129.031.05.124.939-.38-.05-.123-.13.033c.118.464.363.861.728 1.179.368.32.792.486 1.256.485.47 0 .884-.125 1.225-.378.348-.254.53-.626.528-1.063.003-.477-.176-.873-.526-1.139-.34-.258-.851-.486-1.545-.698h.001c-.696-.218-1.213-.5-1.557-.834-.338-.33-.506-.74-.507-1.261.001-.538.208-.994.64-1.4.428-.399.981-.6 1.685-.602.657.001 1.174.164 1.57.48.41.328.667.677.783 1.048l.127-.04-.05-.123-.938.39.051.123.129-.034c-.077-.286-.262-.545-.542-.773-.292-.238-.668-.354-1.108-.353-.419 0-.79.118-1.093.358-.306.238-.472.559-.47.926-.002.337.154.636.435.858h.001c.277.22.668.409 1.176.575.392.126.717.248.976.364.254.115.515.269.78.461.255.185.443.412.572.687.128.273.194.594.194.965 0 .37-.075.693-.224.978a1.819 1.819 0 01-.595.677 3.062 3.062 0 01-1.718.525v.266a3.337 3.337 0 001.868-.57c.283-.191.512-.451.68-.775a2.33 2.33 0 00.256-1.101c0-.403-.072-.764-.22-1.079a2.033 2.033 0 00-.657-.789 4.635 4.635 0 00-.827-.488 9.798 9.798 0 00-1.003-.374c-.489-.16-.854-.34-1.092-.53-.231-.188-.333-.392-.335-.65.002-.289.114-.514.368-.717.255-.2.558-.3.928-.3.396 0 .702.1.94.293v.001-.001c.248.204.393.416.452.635l.04.147 1.078-.45.112-.046-.036-.116c-.136-.434-.432-.826-.871-1.177-.452-.36-1.037-.538-1.737-.537-.754-.001-1.386.223-1.867.673-.477.443-.726.985-.724 1.595-.002.58.197 1.076.588 1.453.386.374.941.67 1.662.897h.001c.677.206 1.167.43 1.46.655.283.22.42.511.422.927-.002.368-.134.635-.42.849-.292.216-.642.325-1.066.325-.401 0-.753-.136-1.08-.42a2.007 2.007 0 01-.645-1.043l-.038-.148-1.08.437-.108.043.029.113c.176.713.561 1.279 1.143 1.676.573.392 1.17.592 1.779.592v-.133m5.173-4.402h1.721c.432 0 .78-.145 1.04-.435.26-.292.39-.611.39-.961s-.13-.671-.39-.961c-.26-.292-.608-.437-1.04-.437h-1.72zm0 4.223h-1.027v-8h2.726c.677 0 1.265.225 1.76.676.496.45.743 1.02.743 1.705 0 .684-.247 1.252-.743 1.703a2.526 2.526 0 01-1.76.676h-1.699v3.24" fill="#fff"/><path d="M73.272 13.11v.133h1.721c.462.001.854-.16 1.139-.48.278-.31.425-.666.425-1.05 0-.383-.147-.74-.425-1.05-.285-.32-.677-.482-1.139-.48H73.14v3.06h.133v-.134h.134v-2.66h1.587c.403.003.704.13.94.393.242.271.356.555.357.872 0 .316-.115.6-.357.871-.236.262-.536.39-.94.391h-1.72v.133h.133zm0 4.223V17.2h-.894V9.467h2.593a2.393 2.393 0 011.67.64c.47.43.698.953.7 1.607-.002.652-.23 1.175-.7 1.604-.473.43-1.022.64-1.67.642H73.14v3.373h.133V17.2v.133h.134v-3.106h1.565a2.66 2.66 0 001.85-.712c.522-.472.788-1.084.786-1.801.002-.718-.264-1.331-.787-1.804a2.661 2.661 0 00-1.849-.71h-2.86v8.267h1.295v-.134h-.134m6.931-1.703c.593.6 1.317.899 2.174.899.856 0 1.581-.3 2.173-.9.592-.599.89-1.365.89-2.296 0-.93-.298-1.697-.89-2.296-.592-.6-1.317-.899-2.173-.899-.857 0-1.581.3-2.174.899-.59.6-.888 1.366-.888 2.296 0 .931.298 1.697.888 2.297zm5.107.67c-.786.808-1.764 1.212-2.933 1.212-1.17 0-2.147-.404-2.933-1.213-.786-.807-1.178-1.796-1.178-2.966 0-1.169.392-2.158 1.178-2.966.786-.809 1.763-1.213 2.933-1.213 1.163 0 2.138.406 2.928 1.218.79.812 1.184 1.8 1.184 2.961 0 1.17-.394 2.159-1.179 2.966" fill="#fff"/><path d="M80.204 15.63l-.095.093c.615.624 1.38.94 2.269.939.888.002 1.655-.315 2.268-.939.618-.624.929-1.43.927-2.39.002-.958-.31-1.766-.927-2.39-.613-.623-1.38-.94-2.268-.938a3.073 3.073 0 00-2.269.938c-.616.624-.927 1.432-.926 2.39-.001.96.31 1.766.926 2.39l.095-.093.095-.094c-.565-.576-.848-1.3-.849-2.203.001-.903.284-1.627.85-2.202h-.001c.57-.576 1.253-.858 2.079-.86.825.002 1.508.284 2.078.86l.002.002-.002-.002c.567.575.85 1.3.85 2.202 0 .903-.283 1.627-.85 2.203-.57.575-1.253.858-2.078.86-.826-.002-1.508-.285-2.08-.86zm5.107.67l-.095-.093c-.764.783-1.7 1.17-2.838 1.172-1.139-.002-2.074-.389-2.837-1.172l-.004-.004.004.004c-.763-.786-1.14-1.734-1.14-2.874 0-1.14.377-2.087 1.14-2.873.763-.783 1.698-1.17 2.837-1.173 1.131.002 2.064.391 2.832 1.179.766.79 1.145 1.736 1.146 2.867 0 1.14-.379 2.088-1.14 2.874l.095.092.096.093c.809-.83 1.217-1.86 1.216-3.059.001-1.192-.409-2.22-1.221-3.053-.813-.837-1.83-1.26-3.024-1.26-1.2 0-2.22.42-3.029 1.255v-.001c-.81.83-1.217 1.86-1.215 3.06-.002 1.198.406 2.228 1.215 3.059.808.833 1.829 1.253 3.029 1.252 1.2.001 2.22-.419 3.029-1.253l-.096-.093m2.621 1.034v-8h1.252l3.887 6.224h.045l-.045-1.542V9.333h1.03v8h-1.074l-4.068-6.525h-.044l.044 1.543v4.982h-1.027" fill="#fff"/><path d="M87.932 17.333h.134V9.467h1.044l3.888 6.223h.255l-.048-1.677V9.467h.762V17.2h-.865l-4.068-6.525h-.256l.048 1.677V17.2h-.894v.133h.134-.134v.134h1.161v-5.119l-.045-1.543-.133.003v.134h.044v-.134l-.113.071 4.107 6.588h1.281V9.2h-1.296v4.817l.045 1.543.133-.003v-.134h-.045v.134l.114-.071L89.257 9.2H87.8v8.267h.133v-.134m7.999 0v-8h1.027v8h-1.027" fill="#fff"/><path d="M95.932 17.333h.134V9.467h.76V17.2h-.894v.133h.134-.134v.134h1.161V9.2h-1.294v8.267h.133v-.134m3.888-.983h2.066c.395 0 .716-.137.961-.414.247-.275.37-.577.37-.905 0-.327-.127-.627-.381-.899-.253-.272-.584-.408-.995-.408H99.82zm0-3.587h1.865c.388 0 .7-.128.934-.385.234-.257.35-.538.35-.844a1.22 1.22 0 00-.34-.837c-.226-.254-.526-.38-.898-.38h-1.912zm-1.028 4.57v-8h2.893c.626 0 1.168.208 1.626.62.458.414.687.933.687 1.559 0 .38-.099.715-.296 1.006-.197.29-.46.51-.788.66v.043c.394.134.719.365.972.693.254.328.381.708.381 1.14 0 .655-.241 1.2-.721 1.63a2.465 2.465 0 01-1.705.65h-3.05" fill="#fff"/><path d="M99.82 16.35v.134h2.066c.426.001.792-.155 1.061-.46.264-.292.404-.63.402-.993.002-.362-.143-.7-.416-.99-.276-.3-.653-.452-1.092-.45h-2.155v2.893h.133v-.133h.134v-2.494h1.888c.381.002.669.123.897.366.236.254.344.516.345.808-.001.294-.107.56-.335.816-.223.248-.497.368-.862.37H99.82v.134h.134zm0-3.587v.133h1.865c.417.002.773-.142 1.032-.429.252-.274.387-.592.386-.933a1.357 1.357 0 00-.375-.927c-.25-.282-.596-.426-.997-.424h-2.045v2.713h.133v-.133h.134V10.45h1.778c.342.003.596.112.799.336v.001c.21.233.306.477.306.748 0 .27-.1.515-.316.753v.001c-.21.229-.476.34-.835.342h-1.866v.133h.134zm-1.028 4.57h.133V9.467h2.76c.597 0 1.1.193 1.537.585.432.393.642.867.643 1.46 0 .357-.091.663-.273.93a1.72 1.72 0 01-.733.614l-.078.035v.226l.09.03c.371.128.671.341.91.649.235.306.352.652.353 1.058-.002.623-.224 1.121-.678 1.532a2.33 2.33 0 01-1.615.614h-3.05v.133h.134-.133v.134h3.05a2.598 2.598 0 001.793-.683 2.236 2.236 0 00.766-1.73c0-.458-.138-.871-.409-1.221a2.164 2.164 0 00-1.035-.738l-.043.126h.133v-.044h-.133l.055.121c.349-.157.634-.394.844-.706h-.001a1.88 1.88 0 00.32-1.08 2.146 2.146 0 00-.731-1.658l-.004-.002.004.002a2.484 2.484 0 00-1.716-.654h-3.027v8.267h.134v-.134m6.861 0v-8h1.027v7.018h3.463v.982h-4.49" fill="#fff"/><path d="M105.653 17.333h.133V9.467h.76v7.017h3.464v.716h-4.357v.133h.133-.133v.134h4.624v-1.25h-3.464V9.2h-1.294v8.267h.134v-.134m10.457-7.017h-3.642v2.537h3.285v.961h-3.285v2.537h3.642v.982h-4.67v-8h4.67v.983" fill="#fff"/><path d="M116.11 10.316v-.133h-3.776v2.803h3.285v.694h-3.285v2.804h3.643v.716h-4.404V9.467h4.404v.85h.133v-.134.133h.134V9.2h-4.937v8.267h4.937v-1.25H112.6v-2.27h3.285V12.72H112.6v-2.27h3.643v-.133h-.134m6.214 7.195c-.58 0-1.148-.19-1.703-.57-.556-.38-.92-.912-1.09-1.598l.94-.38c.111.44.338.81.685 1.112.348.302.736.453 1.168.453.446 0 .829-.118 1.146-.352.316-.234.474-.553.474-.956 0-.446-.158-.79-.474-1.033-.317-.242-.818-.467-1.502-.676-.71-.223-1.246-.512-1.61-.866-.365-.354-.549-.806-.549-1.357 0-.574.228-1.073.683-1.497.454-.425 1.046-.638 1.776-.638.678 0 1.229.17 1.653.51.425.338.701.708.828 1.11l-.939.391c-.066-.252-.232-.487-.497-.704-.264-.215-.605-.323-1.023-.323-.394 0-.732.11-1.01.33-.28.22-.419.493-.419.82 0 .298.128.55.385.755.258.204.635.39 1.134.553.394.127.724.25.989.369.265.118.533.277.804.475.272.196.476.443.615.737.137.294.206.635.206 1.022s-.078.734-.24 1.039c-.16.306-.373.548-.637.727a3.2 3.2 0 01-1.793.547" fill="#fff"/><path d="M122.323 17.512v-.133c-.551 0-1.091-.179-1.628-.546-.53-.364-.871-.863-1.036-1.52l-.129.031.05.124.939-.38-.05-.123-.129.033c.117.464.361.861.728 1.179l.003.002-.003-.002c.367.32.79.486 1.255.485.469 0 .884-.125 1.225-.378.348-.254.53-.626.528-1.063.003-.477-.176-.873-.527-1.139-.338-.258-.85-.486-1.544-.698h.002c-.696-.218-1.214-.5-1.558-.834-.338-.33-.506-.74-.507-1.261.001-.538.207-.994.64-1.4.429-.399.98-.6 1.685-.602.657.001 1.173.164 1.57.48.41.328.667.677.783 1.048l.128-.04-.052-.123-.937.39.05.123.13-.034c-.076-.286-.263-.545-.542-.773-.292-.238-.668-.354-1.108-.353-.418 0-.79.118-1.093.358-.305.238-.472.559-.47.926-.002.337.154.636.435.858.278.22.668.409 1.176.575h.002c.39.126.716.248.974.364.255.115.516.269.78.461.255.185.444.412.572.687.13.273.195.594.195.965 0 .37-.075.693-.224.978-.152.288-.35.511-.595.677a3.057 3.057 0 01-1.719.525v.266a3.331 3.331 0 001.869-.57c.282-.191.512-.451.681-.775a2.35 2.35 0 00.255-1.101c0-.403-.072-.764-.22-1.079a2.021 2.021 0 00-.656-.789l-.003-.001.003.002a4.623 4.623 0 00-.828-.489 9.737 9.737 0 00-1.003-.374c-.49-.16-.853-.34-1.092-.53-.23-.188-.333-.392-.335-.65.002-.289.115-.514.368-.717.255-.2.558-.3.928-.3.396 0 .702.1.939.293.25.204.395.416.453.635l.039.147 1.079-.45.112-.046-.036-.116c-.136-.434-.432-.826-.871-1.177-.452-.36-1.037-.538-1.737-.537-.755-.001-1.387.223-1.867.673-.477.443-.726.985-.725 1.595-.001.58.198 1.076.589 1.453.385.374.941.67 1.663.897.677.206 1.166.43 1.461.655.283.22.419.511.421.927-.002.368-.134.635-.42.849-.292.216-.642.325-1.066.325-.4 0-.752-.136-1.08-.42a2.013 2.013 0 01-.646-1.043l-.037-.148-1.08.437-.108.043.029.113c.176.713.561 1.279 1.143 1.676.572.392 1.17.592 1.779.592v-.133m6.927 0c-.88 0-1.593-.29-2.14-.871-.547-.581-.82-1.342-.82-2.28V9.333h1.026v5.073c0 .633.165 1.145.497 1.537.331.39.811.586 1.438.586.624 0 1.104-.196 1.434-.586.332-.392.498-.904.498-1.537V9.333h1.028v5.028c0 .946-.267 1.708-.799 2.285-.533.578-1.255.866-2.161.866" fill="#fff"/><path d="M129.25 17.512v-.133c-.851-.002-1.52-.276-2.043-.83-.522-.554-.783-1.274-.784-2.188V9.467h.76v4.94c0 .654.173 1.202.529 1.622.357.425.885.635 1.539.633.65.002 1.178-.208 1.536-.633.356-.42.529-.968.529-1.623v-4.94h.761v4.895c0 .922-.257 1.645-.764 2.194-.506.549-1.182.822-2.062.824v.266c.934.001 1.7-.301 2.258-.909.559-.604.836-1.405.835-2.375V9.2h-1.295v5.206c-.001.61-.158 1.086-.466 1.45-.303.357-.734.538-1.332.54-.602-.002-1.032-.183-1.335-.54-.308-.364-.465-.84-.467-1.45V9.2h-1.293v5.161c-.001.964.284 1.764.856 2.37.572.61 1.33.915 2.239.914v-.133m5.641-4.38h1.653c.411 0 .762-.134 1.056-.402.295-.267.442-.607.442-1.016 0-.35-.13-.671-.391-.961-.26-.292-.607-.437-1.039-.437h-1.721zm-1.028 4.201v-8h2.727c.677 0 1.265.225 1.76.676.496.45.742 1.02.742 1.705 0 .558-.181 1.052-.548 1.48a2.368 2.368 0 01-1.362.81l-.023.033 2.247 3.252v.044h-1.218l-2.157-3.24h-1.14v3.24h-1.028" fill="#fff"/><path d="M134.892 13.132v.134h1.653c.44 0 .83-.148 1.147-.437h-.001a1.45 1.45 0 00.485-1.115c.001-.384-.145-.741-.424-1.05-.285-.32-.677-.483-1.139-.481h-1.854v3.083h.133v-.134h.133V10.45h1.588c.403.003.703.13.94.393.242.271.356.555.356.872a1.176 1.176 0 01-.397.917 1.38 1.38 0 01-.967.368h-1.653v.133h.133zm-1.028 4.201h.133V9.467h2.594a2.39 2.39 0 011.669.64c.47.43.699.953.7 1.607 0 .53-.17.987-.516 1.393a2.242 2.242 0 01-1.288.766l-.055.011-.052.08-.05.075 2.274 3.292v.002h.134V17.2h-1.147l-2.156-3.24h-1.345v3.24h-.895v.133h.133-.133v.134h1.161v-3.24h.936l2.156 3.24h1.423v-.22l-2.27-3.286-.11.076.11.074.023-.033-.11-.074.026.13a2.506 2.506 0 001.438-.854c.385-.45.581-.979.58-1.566.002-.718-.264-1.331-.787-1.804a2.664 2.664 0 00-1.85-.71h-2.86v8.267h.134v-.134" fill="#fff"/></svg>