<svg width="120" height="100" fill="none" xmlns="http://www.w3.org/2000/svg"><path d="M31.142 39.595a28.563 28.563 0 0057.127 0h31.134a59.708 59.708 0 01-59.702 60.402A59.706 59.706 0 010 39.595h31.142z" fill="#FDE6D8"/><path d="M99.76 40.22a2.71 2.71 0 01-1.664.14l-.813-.334-6.411-3.93v36.447a2.718 2.718 0 01-2.717 2.71H31.598a2.71 2.71 0 01-2.71-2.71v-36.47l-6.45 3.953a2.709 2.709 0 01-2.05.325 2.66 2.66 0 01-1.677-1.22l-4.067-6.663a2.709 2.709 0 01.886-3.726l15.23-9.307 13.553-8.33L58.461 2.44a2.725 2.725 0 012.83 0l42.907 26.301a2.709 2.709 0 01.895 3.726l-4.068 6.663c-.297.487-.74.868-1.266 1.088z" stroke="#006142" stroke-width="5" stroke-linejoin="round"/></svg>