<?xml version="1.0" encoding="UTF-8" standalone="no"?>
<svg xmlns="http://www.w3.org/2000/svg" height="27px" width="23px" version="1.1" xmlns:xlink="http://www.w3.org/1999/xlink" viewBox="0 0 23 27"><!-- Generator: Sketch 55.2 (78181) - https://sketchapp.com -->
 <title>Android_Robot (1)</title>
 <desc>Created with Sketch.</desc>
 <g id="Page" fill-rule="evenodd" fill="none">
  <g id="NEX_Local_md_3b" fill-rule="nonzero" fill="#fff" transform="translate(-1346 -6568)">
   <g id="FOOTER" transform="translate(0 6150)">
    <g id="Group" transform="translate(1220 418)">
     <g id="Android_Robot-(1)" transform="translate(126)">
      <path id="Shape" d="m22.791 10.441c0-0.9135-0.751-1.664-1.664-1.664-0.914 0-1.664 0.7505-1.664 1.664v6.934c0 0.913 0.75 1.664 1.664 1.664 0.913 0 1.664-0.751 1.664-1.664v-6.934zm-19.414 0c0-0.9135-0.7504-1.664-1.664-1.664s-1.6641 0.7505-1.6641 1.664l0.000043 6.934c0 0.913 0.75046 1.664 1.6641 1.664 0.9136 0 1.664-0.751 1.664-1.664v-6.934zm11.681-7.9286l1.175-2.1209c0.065-0.11416 0.024-0.26099-0.09-0.31809-0.033-0.01631-0.074-0.032625-0.114-0.032625-0.082 0-0.163 0.040786-0.204 0.12236l-1.191 2.1454c-0.971-0.4324-2.064-0.6771-3.214-0.6771s-2.2433 0.2447-3.214 0.6771l-1.1827-2.1454c-0.0653-0.11416-0.204-0.15494-0.3182-0.089686-0.1142 0.065256-0.1549 0.20393-0.0897 0.31813l1.1746 2.1209c-2.2676 1.1746-3.793 3.4015-3.793 5.9628h14.846c0-2.5613-1.525-4.7882-3.785-5.9628zm-7.064 3.2465c-0.3426 0-0.62-0.2773-0.62-0.6199s0.2774-0.62 0.62-0.62 0.6199 0.2774 0.6199 0.62-0.2773 0.6199-0.6199 0.6199zm6.852 0c-0.343 0-0.62-0.2773-0.62-0.6199s0.277-0.62 0.62-0.62 0.62 0.2774 0.62 0.62-0.277 0.6199-0.62 0.6199zm-10.849 3.3036v10.76c0 0.995 0.7994 1.794 1.7945 1.794h1.191v3.671c0 0.914 0.7504 1.664 1.664 1.664s1.6645-0.75 1.6645-1.664v-3.671h2.218v3.671c0 0.914 0.751 1.664 1.664 1.664 0.914 0 1.664-0.75 1.664-1.664v-3.671h1.191c0.996 0 1.795-0.799 1.795-1.794v-10.76l-14.846 0.0005z"/>
     </g>
    </g>
   </g>
  </g>
 </g>
</svg>
