<?xml version="1.0" encoding="UTF-8" standalone="no"?>
<svg xmlns="http://www.w3.org/2000/svg" height="24px" width="21px" version="1.1" xmlns:xlink="http://www.w3.org/1999/xlink" viewBox="0 0 21 24"><!-- Generator: Sketch 55.2 (78181) - https://sketchapp.com -->
 <title>Apple_logo_black</title>
 <desc>Created with Sketch.</desc>
 <g id="Page" fill-rule="evenodd" fill="none">
  <g id="NEX_Local_md_3b" fill-rule="nonzero" fill="#fff" transform="translate(-1302 -6568)">
   <g id="FOOTER" transform="translate(0 6150)">
    <g id="Group" transform="translate(1220 418)">
     <g id="Apple_logo_black" transform="translate(82)">
      <path id="Shape" d="m19.767 18.703c-0.362 0.839-0.791 1.611-1.288 2.32-0.678 0.968-1.233 1.637-1.661 2.009-0.662 0.61-1.373 0.923-2.133 0.941-0.546 0-1.204-0.156-1.971-0.471-0.769-0.314-1.475-0.47-2.122-0.47-0.6773 0-1.404 0.156-2.1814 0.47-0.7786 0.315-1.4058 0.48-1.8853 0.496-0.7293 0.031-1.4562-0.29-2.1818-0.966-0.4631-0.404-1.0424-1.098-1.7363-2.08-0.7445-1.049-1.3567-2.265-1.8362-3.652-0.51355-1.497-0.771-2.948-0.771-4.352 0-1.608 0.34711-2.9954 1.0424-4.1579 0.5464-0.9337 1.2733-1.6703 2.1831-2.211 0.9098-0.5408 1.8928-0.8163 2.9515-0.8339 0.5792 0 1.3389 0.1794 2.2828 0.5319 0.9414 0.3538 1.5462 0.5332 1.8112 0.5332 0.198 0 0.869-0.2098 2.007-0.628 1.077-0.3878 1.985-0.5484 2.729-0.4851 2.017 0.1629 3.532 0.9589 4.54 2.3929-1.804 1.0942-2.696 2.6269-2.678 4.5929 0.016 1.531 0.571 2.806 1.661 3.817 0.495 0.47 1.046 0.833 1.66 1.091-0.133 0.386-0.273 0.757-0.423 1.112zm-4.625-18.223c0 1.2003-0.438 2.321-1.311 3.3583-1.053 1.2332-2.327 1.9457-3.709 1.8333-0.018-0.144-0.028-0.2956-0.028-0.4548 0-1.1523 0.501-2.3854 1.391-3.3937 0.444-0.5105 1.009-0.93497 1.694-1.2736 0.683-0.33355 1.33-0.51802 1.938-0.5496 0.018 0.16045 0.025 0.32092 0.025 0.48012v0.00001z"/>
     </g>
    </g>
   </g>
  </g>
 </g>
</svg>
